<svg width="420" height="320" viewBox="0 0 420 320" xmlns="http://www.w3.org/2000/svg" role="img" aria-label="Heart with symmetry line">
  <defs>
    <linearGradient id="heart-bg" x1="0%" y1="0%" x2="100%" y2="100%">
      <stop offset="0%" stop-color="#fff1f2" />
      <stop offset="100%" stop-color="#ffe4e6" />
    </linearGradient>
  </defs>
  <rect width="420" height="320" rx="32" fill="url(#heart-bg)" />
  <line x1="210" y1="40" x2="210" y2="280" stroke="#f43f5e" stroke-width="4" stroke-dasharray="12 12" />
  <g transform="translate(120 40) scale(7)">
    <path fill="#f43f5e" d="M35.885 11.833c0-5.45-4.418-9.868-9.867-9.868-3.308 0-6.227 1.633-8.018 4.129-1.791-2.496-4.71-4.129-8.017-4.129-5.45 0-9.868 4.417-9.868 9.868 0 .772.098 1.52.266 2.241C1.751 22.587 11.216 31.568 18 34.034c6.783-2.466 16.249-11.447 17.617-19.959.17-.721.268-1.469.268-2.242z" />
  </g>
  <text x="210" y="300" text-anchor="middle" font-family="Heebo, Arial" font-weight="600" font-size="24" fill="#9f1239">
    че сйоишйд
  </text>
</svg>
